solid ASCII
  facet normal 0.000000e+00 -4.450956e-01 -8.954831e-01
    outer loop
      vertex   -5.000000e-02 -1.502033e-07 1.860000e+00
      vertex   -5.000000e-02 1.790951e-02 1.851098e+00
      vertex   5.000000e-02 -1.502033e-07 1.860000e+00
    endloop
  endfacet
  facet normal 0.000000e+00 -4.450956e-01 -8.954831e-01
    outer loop
      vertex   5.000000e-02 -1.502033e-07 1.860000e+00
      vertex   -5.000000e-02 1.790951e-02 1.851098e+00
      vertex   5.000000e-02 1.790951e-02 1.851098e+00
    endloop
  endfacet
  facet normal 0.000000e+00 -9.659258e-01 2.588190e-01
    outer loop
      vertex   -5.000000e-02 2.588189e-01 2.825926e+00
      vertex   -5.000000e-02 -1.502033e-07 1.860000e+00
      vertex   5.000000e-02 2.588189e-01 2.825926e+00
    endloop
  endfacet
  facet normal 0.000000e+00 -9.659258e-01 2.588190e-01
    outer loop
      vertex   5.000000e-02 2.588189e-01 2.825926e+00
      vertex   -5.000000e-02 -1.502033e-07 1.860000e+00
      vertex   5.000000e-02 -1.502033e-07 1.860000e+00
    endloop
  endfacet
  facet normal -0.000000e+00 6.242147e-02 9.980499e-01
    outer loop
      vertex   -5.000000e-02 2.787799e-01 2.824677e+00
      vertex   -5.000000e-02 2.588189e-01 2.825926e+00
      vertex   5.000000e-02 2.787799e-01 2.824677e+00
    endloop
  endfacet
  facet normal 0.000000e+00 6.242147e-02 9.980499e-01
    outer loop
      vertex   5.000000e-02 2.787799e-01 2.824677e+00
      vertex   -5.000000e-02 2.588189e-01 2.825926e+00
      vertex   5.000000e-02 2.588189e-01 2.825926e+00
    endloop
  endfacet
  facet normal 0.000000e+00 9.004195e-01 -4.350227e-01
    outer loop
      vertex   5.000000e-02 1.790951e-02 1.851098e+00
      vertex   -5.000000e-02 1.790951e-02 1.851098e+00
      vertex   5.000000e-02 4.243051e-02 1.901852e+00
    endloop
  endfacet
  facet normal 0.000000e+00 9.004195e-01 -4.350227e-01
    outer loop
      vertex   5.000000e-02 4.243051e-02 1.901852e+00
      vertex   -5.000000e-02 1.790951e-02 1.851098e+00
      vertex   -5.000000e-02 4.243051e-02 1.901852e+00
    endloop
  endfacet
  facet normal 0.000000e+00 9.098330e-01 -4.149746e-01
    outer loop
      vertex   5.000000e-02 4.243051e-02 1.901852e+00
      vertex   -5.000000e-02 4.243051e-02 1.901852e+00
      vertex   5.000000e-02 6.582145e-02 1.953137e+00
    endloop
  endfacet
  facet normal 0.000000e+00 9.098330e-01 -4.149746e-01
    outer loop
      vertex   5.000000e-02 6.582145e-02 1.953137e+00
      vertex   -5.000000e-02 4.243051e-02 1.901852e+00
      vertex   -5.000000e-02 6.582145e-02 1.953137e+00
    endloop
  endfacet
  facet normal 0.000000e+00 9.188002e-01 -3.947229e-01
    outer loop
      vertex   5.000000e-02 6.582145e-02 1.953137e+00
      vertex   -5.000000e-02 6.582145e-02 1.953137e+00
      vertex   5.000000e-02 8.807086e-02 2.004927e+00
    endloop
  endfacet
  facet normal 0.000000e+00 9.188002e-01 -3.947229e-01
    outer loop
      vertex   5.000000e-02 8.807086e-02 2.004927e+00
      vertex   -5.000000e-02 6.582145e-02 1.953137e+00
      vertex   -5.000000e-02 8.807086e-02 2.004927e+00
    endloop
  endfacet
  facet normal 0.000000e+00 9.273167e-01 -3.742775e-01
    outer loop
      vertex   5.000000e-02 8.807086e-02 2.004927e+00
      vertex   -5.000000e-02 8.807086e-02 2.004927e+00
      vertex   5.000000e-02 1.091678e-01 2.057197e+00
    endloop
  endfacet
  facet normal 0.000000e+00 9.273167e-01 -3.742775e-01
    outer loop
      vertex   5.000000e-02 1.091678e-01 2.057197e+00
      vertex   -5.000000e-02 8.807086e-02 2.004927e+00
      vertex   -5.000000e-02 1.091678e-01 2.057197e+00
    endloop
  endfacet
  facet normal 0.000000e+00 9.353784e-01 -3.536486e-01
    outer loop
      vertex   5.000000e-02 1.091678e-01 2.057197e+00
      vertex   -5.000000e-02 1.091678e-01 2.057197e+00
      vertex   5.000000e-02 1.291020e-01 2.109922e+00
    endloop
  endfacet
  facet normal 0.000000e+00 9.353784e-01 -3.536486e-01
    outer loop
      vertex   5.000000e-02 1.291020e-01 2.109922e+00
      vertex   -5.000000e-02 1.091678e-01 2.057197e+00
      vertex   -5.000000e-02 1.291020e-01 2.109922e+00
    endloop
  endfacet
  facet normal 0.000000e+00 9.429811e-01 -3.328462e-01
    outer loop
      vertex   5.000000e-02 1.291020e-01 2.109922e+00
      vertex   -5.000000e-02 1.291020e-01 2.109922e+00
      vertex   5.000000e-02 1.478636e-01 2.163075e+00
    endloop
  endfacet
  facet normal 0.000000e+00 9.429811e-01 -3.328462e-01
    outer loop
      vertex   5.000000e-02 1.478636e-01 2.163075e+00
      vertex   -5.000000e-02 1.291020e-01 2.109922e+00
      vertex   -5.000000e-02 1.478636e-01 2.163075e+00
    endloop
  endfacet
  facet normal 0.000000e+00 9.501213e-01 -3.118805e-01
    outer loop
      vertex   5.000000e-02 1.478636e-01 2.163075e+00
      vertex   -5.000000e-02 1.478636e-01 2.163075e+00
      vertex   5.000000e-02 1.654434e-01 2.216631e+00
    endloop
  endfacet
  facet normal 0.000000e+00 9.501213e-01 -3.118805e-01
    outer loop
      vertex   5.000000e-02 1.654434e-01 2.216631e+00
      vertex   -5.000000e-02 1.478636e-01 2.163075e+00
      vertex   -5.000000e-02 1.654434e-01 2.216631e+00
    endloop
  endfacet
  facet normal 0.000000e+00 9.567955e-01 -2.907618e-01
    outer loop
      vertex   5.000000e-02 1.654434e-01 2.216631e+00
      vertex   -5.000000e-02 1.654434e-01 2.216631e+00
      vertex   5.000000e-02 1.818328e-01 2.270563e+00
    endloop
  endfacet
  facet normal 0.000000e+00 9.567955e-01 -2.907618e-01
    outer loop
      vertex   5.000000e-02 1.818328e-01 2.270563e+00
      vertex   -5.000000e-02 1.654434e-01 2.216631e+00
      vertex   -5.000000e-02 1.818328e-01 2.270563e+00
    endloop
  endfacet
  facet normal 0.000000e+00 9.630003e-01 -2.695005e-01
    outer loop
      vertex   5.000000e-02 1.818328e-01 2.270563e+00
      vertex   -5.000000e-02 1.818328e-01 2.270563e+00
      vertex   5.000000e-02 1.970238e-01 2.324844e+00
    endloop
  endfacet
  facet normal 0.000000e+00 9.630003e-01 -2.695005e-01
    outer loop
      vertex   5.000000e-02 1.970238e-01 2.324844e+00
      vertex   -5.000000e-02 1.818328e-01 2.270563e+00
      vertex   -5.000000e-02 1.970238e-01 2.324844e+00
    endloop
  endfacet
  facet normal 0.000000e+00 9.687326e-01 -2.481070e-01
    outer loop
      vertex   5.000000e-02 1.970238e-01 2.324844e+00
      vertex   -5.000000e-02 1.970238e-01 2.324844e+00
      vertex   5.000000e-02 2.110089e-01 2.379449e+00
    endloop
  endfacet
  facet normal 0.000000e+00 9.687326e-01 -2.481070e-01
    outer loop
      vertex   5.000000e-02 2.110089e-01 2.379449e+00
      vertex   -5.000000e-02 1.970238e-01 2.324844e+00
      vertex   -5.000000e-02 2.110089e-01 2.379449e+00
    endloop
  endfacet
  facet normal 0.000000e+00 9.739898e-01 -2.265917e-01
    outer loop
      vertex   5.000000e-02 2.110089e-01 2.379449e+00
      vertex   -5.000000e-02 2.110089e-01 2.379449e+00
      vertex   5.000000e-02 2.237812e-01 2.434350e+00
    endloop
  endfacet
  facet normal 0.000000e+00 9.739898e-01 -2.265917e-01
    outer loop
      vertex   5.000000e-02 2.237812e-01 2.434350e+00
      vertex   -5.000000e-02 2.110089e-01 2.379449e+00
      vertex   -5.000000e-02 2.237812e-01 2.434350e+00
    endloop
  endfacet
  facet normal 0.000000e+00 9.787692e-01 -2.049654e-01
    outer loop
      vertex   5.000000e-02 2.237812e-01 2.434350e+00
      vertex   -5.000000e-02 2.237812e-01 2.434350e+00
      vertex   5.000000e-02 2.353345e-01 2.489520e+00
    endloop
  endfacet
  facet normal 0.000000e+00 9.787692e-01 -2.049654e-01
    outer loop
      vertex   5.000000e-02 2.353345e-01 2.489520e+00
      vertex   -5.000000e-02 2.237812e-01 2.434350e+00
      vertex   -5.000000e-02 2.353345e-01 2.489520e+00
    endloop
  endfacet
  facet normal 0.000000e+00 9.830685e-01 -1.832384e-01
    outer loop
      vertex   5.000000e-02 2.353345e-01 2.489520e+00
      vertex   -5.000000e-02 2.353345e-01 2.489520e+00
      vertex   5.000000e-02 2.456632e-01 2.544933e+00
    endloop
  endfacet
  facet normal 0.000000e+00 9.830685e-01 -1.832384e-01
    outer loop
      vertex   5.000000e-02 2.456632e-01 2.544933e+00
      vertex   -5.000000e-02 2.353345e-01 2.489520e+00
      vertex   -5.000000e-02 2.456632e-01 2.544933e+00
    endloop
  endfacet
  facet normal 0.000000e+00 9.868855e-01 -1.614216e-01
    outer loop
      vertex   5.000000e-02 2.456632e-01 2.544933e+00
      vertex   -5.000000e-02 2.456632e-01 2.544933e+00
      vertex   5.000000e-02 2.547621e-01 2.600561e+00
    endloop
  endfacet
  facet normal 0.000000e+00 9.868855e-01 -1.614216e-01
    outer loop
      vertex   5.000000e-02 2.547621e-01 2.600561e+00
      vertex   -5.000000e-02 2.456632e-01 2.544933e+00
      vertex   -5.000000e-02 2.547621e-01 2.600561e+00
    endloop
  endfacet
  facet normal 0.000000e+00 9.902185e-01 -1.395257e-01
    outer loop
      vertex   5.000000e-02 2.547621e-01 2.600561e+00
      vertex   -5.000000e-02 2.547621e-01 2.600561e+00
      vertex   5.000000e-02 2.626267e-01 2.656377e+00
    endloop
  endfacet
  facet normal 0.000000e+00 9.902185e-01 -1.395257e-01
    outer loop
      vertex   5.000000e-02 2.626267e-01 2.656377e+00
      vertex   -5.000000e-02 2.547621e-01 2.600561e+00
      vertex   -5.000000e-02 2.626267e-01 2.656377e+00
    endloop
  endfacet
  facet normal 0.000000e+00 9.930656e-01 -1.175612e-01
    outer loop
      vertex   5.000000e-02 2.626267e-01 2.656377e+00
      vertex   -5.000000e-02 2.626267e-01 2.656377e+00
      vertex   5.000000e-02 2.692533e-01 2.712353e+00
    endloop
  endfacet
  facet normal 0.000000e+00 9.930656e-01 -1.175612e-01
    outer loop
      vertex   5.000000e-02 2.692533e-01 2.712353e+00
      vertex   -5.000000e-02 2.626267e-01 2.656377e+00
      vertex   -5.000000e-02 2.692533e-01 2.712353e+00
    endloop
  endfacet
  facet normal 0.000000e+00 9.954257e-01 -9.553912e-02
    outer loop
      vertex   5.000000e-02 2.692533e-01 2.712353e+00
      vertex   -5.000000e-02 2.692533e-01 2.712353e+00
      vertex   5.000000e-02 2.746386e-01 2.768463e+00
    endloop
  endfacet
  facet normal 0.000000e+00 9.954257e-01 -9.553912e-02
    outer loop
      vertex   5.000000e-02 2.746386e-01 2.768463e+00
      vertex   -5.000000e-02 2.692533e-01 2.712353e+00
      vertex   -5.000000e-02 2.746386e-01 2.768463e+00
    endloop
  endfacet
  facet normal 0.000000e+00 9.972974e-01 -7.347015e-02
    outer loop
      vertex   5.000000e-02 2.746386e-01 2.768463e+00
      vertex   -5.000000e-02 2.746386e-01 2.768463e+00
      vertex   5.000000e-02 2.787799e-01 2.824677e+00
    endloop
  endfacet
  facet normal 0.000000e+00 9.972974e-01 -7.347015e-02
    outer loop
      vertex   5.000000e-02 2.787799e-01 2.824677e+00
      vertex   -5.000000e-02 2.746386e-01 2.768463e+00
      vertex   -5.000000e-02 2.787799e-01 2.824677e+00
    endloop
  endfacet
  facet normal 1.000000e+00 0.000000e+00 -0.000000e+00
    outer loop
      vertex   5.000000e-02 1.790951e-02 1.851098e+00
      vertex   5.000000e-02 4.243051e-02 1.901852e+00
      vertex   5.000000e-02 -1.502033e-07 1.860000e+00
    endloop
  endfacet
  facet normal 1.000000e+00 0.000000e+00 0.000000e+00
    outer loop
      vertex   5.000000e-02 -1.502033e-07 1.860000e+00
      vertex   5.000000e-02 4.243051e-02 1.901852e+00
      vertex   5.000000e-02 6.582145e-02 1.953137e+00
    endloop
  endfacet
  facet normal 1.000000e+00 0.000000e+00 0.000000e+00
    outer loop
      vertex   5.000000e-02 -1.502033e-07 1.860000e+00
      vertex   5.000000e-02 6.582145e-02 1.953137e+00
      vertex   5.000000e-02 8.807086e-02 2.004927e+00
    endloop
  endfacet
  facet normal 1.000000e+00 0.000000e+00 -0.000000e+00
    outer loop
      vertex   5.000000e-02 8.807086e-02 2.004927e+00
      vertex   5.000000e-02 1.091678e-01 2.057197e+00
      vertex   5.000000e-02 -1.502033e-07 1.860000e+00
    endloop
  endfacet
  facet normal 1.000000e+00 0.000000e+00 0.000000e+00
    outer loop
      vertex   5.000000e-02 -1.502033e-07 1.860000e+00
      vertex   5.000000e-02 1.091678e-01 2.057197e+00
      vertex   5.000000e-02 2.588189e-01 2.825926e+00
    endloop
  endfacet
  facet normal 1.000000e+00 0.000000e+00 0.000000e+00
    outer loop
      vertex   5.000000e-02 2.588189e-01 2.825926e+00
      vertex   5.000000e-02 1.091678e-01 2.057197e+00
      vertex   5.000000e-02 1.291020e-01 2.109922e+00
    endloop
  endfacet
  facet normal 1.000000e+00 0.000000e+00 0.000000e+00
    outer loop
      vertex   5.000000e-02 2.588189e-01 2.825926e+00
      vertex   5.000000e-02 1.291020e-01 2.109922e+00
      vertex   5.000000e-02 1.478636e-01 2.163075e+00
    endloop
  endfacet
  facet normal 1.000000e+00 0.000000e+00 0.000000e+00
    outer loop
      vertex   5.000000e-02 1.478636e-01 2.163075e+00
      vertex   5.000000e-02 1.654434e-01 2.216631e+00
      vertex   5.000000e-02 2.588189e-01 2.825926e+00
    endloop
  endfacet
  facet normal 1.000000e+00 0.000000e+00 0.000000e+00
    outer loop
      vertex   5.000000e-02 2.588189e-01 2.825926e+00
      vertex   5.000000e-02 1.654434e-01 2.216631e+00
      vertex   5.000000e-02 1.818328e-01 2.270563e+00
    endloop
  endfacet
  facet normal 1.000000e+00 0.000000e+00 0.000000e+00
    outer loop
      vertex   5.000000e-02 2.588189e-01 2.825926e+00
      vertex   5.000000e-02 1.818328e-01 2.270563e+00
      vertex   5.000000e-02 1.970238e-01 2.324844e+00
    endloop
  endfacet
  facet normal 1.000000e+00 0.000000e+00 0.000000e+00
    outer loop
      vertex   5.000000e-02 1.970238e-01 2.324844e+00
      vertex   5.000000e-02 2.110089e-01 2.379449e+00
      vertex   5.000000e-02 2.588189e-01 2.825926e+00
    endloop
  endfacet
  facet normal 1.000000e+00 0.000000e+00 0.000000e+00
    outer loop
      vertex   5.000000e-02 2.588189e-01 2.825926e+00
      vertex   5.000000e-02 2.110089e-01 2.379449e+00
      vertex   5.000000e-02 2.237812e-01 2.434350e+00
    endloop
  endfacet
  facet normal 1.000000e+00 0.000000e+00 0.000000e+00
    outer loop
      vertex   5.000000e-02 2.588189e-01 2.825926e+00
      vertex   5.000000e-02 2.237812e-01 2.434350e+00
      vertex   5.000000e-02 2.353345e-01 2.489520e+00
    endloop
  endfacet
  facet normal 1.000000e+00 0.000000e+00 0.000000e+00
    outer loop
      vertex   5.000000e-02 2.353345e-01 2.489520e+00
      vertex   5.000000e-02 2.456632e-01 2.544933e+00
      vertex   5.000000e-02 2.588189e-01 2.825926e+00
    endloop
  endfacet
  facet normal 1.000000e+00 0.000000e+00 0.000000e+00
    outer loop
      vertex   5.000000e-02 2.588189e-01 2.825926e+00
      vertex   5.000000e-02 2.456632e-01 2.544933e+00
      vertex   5.000000e-02 2.547621e-01 2.600561e+00
    endloop
  endfacet
  facet normal 1.000000e+00 0.000000e+00 0.000000e+00
    outer loop
      vertex   5.000000e-02 2.588189e-01 2.825926e+00
      vertex   5.000000e-02 2.547621e-01 2.600561e+00
      vertex   5.000000e-02 2.626267e-01 2.656377e+00
    endloop
  endfacet
  facet normal 1.000000e+00 0.000000e+00 -0.000000e+00
    outer loop
      vertex   5.000000e-02 2.626267e-01 2.656377e+00
      vertex   5.000000e-02 2.692533e-01 2.712353e+00
      vertex   5.000000e-02 2.588189e-01 2.825926e+00
    endloop
  endfacet
  facet normal 1.000000e+00 0.000000e+00 0.000000e+00
    outer loop
      vertex   5.000000e-02 2.588189e-01 2.825926e+00
      vertex   5.000000e-02 2.692533e-01 2.712353e+00
      vertex   5.000000e-02 2.746386e-01 2.768463e+00
    endloop
  endfacet
  facet normal 1.000000e+00 0.000000e+00 0.000000e+00
    outer loop
      vertex   5.000000e-02 2.588189e-01 2.825926e+00
      vertex   5.000000e-02 2.746386e-01 2.768463e+00
      vertex   5.000000e-02 2.787799e-01 2.824677e+00
    endloop
  endfacet
  facet normal -1.000000e+00 -0.000000e+00 0.000000e+00
    outer loop
      vertex   -5.000000e-02 2.787799e-01 2.824677e+00
      vertex   -5.000000e-02 2.746386e-01 2.768463e+00
      vertex   -5.000000e-02 2.588189e-01 2.825926e+00
    endloop
  endfacet
  facet normal -1.000000e+00 0.000000e+00 0.000000e+00
    outer loop
      vertex   -5.000000e-02 2.588189e-01 2.825926e+00
      vertex   -5.000000e-02 2.746386e-01 2.768463e+00
      vertex   -5.000000e-02 2.692533e-01 2.712353e+00
    endloop
  endfacet
  facet normal -1.000000e+00 0.000000e+00 0.000000e+00
    outer loop
      vertex   -5.000000e-02 2.588189e-01 2.825926e+00
      vertex   -5.000000e-02 2.692533e-01 2.712353e+00
      vertex   -5.000000e-02 2.626267e-01 2.656377e+00
    endloop
  endfacet
  facet normal -1.000000e+00 -0.000000e+00 0.000000e+00
    outer loop
      vertex   -5.000000e-02 2.626267e-01 2.656377e+00
      vertex   -5.000000e-02 2.547621e-01 2.600561e+00
      vertex   -5.000000e-02 2.588189e-01 2.825926e+00
    endloop
  endfacet
  facet normal -1.000000e+00 0.000000e+00 0.000000e+00
    outer loop
      vertex   -5.000000e-02 2.588189e-01 2.825926e+00
      vertex   -5.000000e-02 2.547621e-01 2.600561e+00
      vertex   -5.000000e-02 2.456632e-01 2.544933e+00
    endloop
  endfacet
  facet normal -1.000000e+00 0.000000e+00 0.000000e+00
    outer loop
      vertex   -5.000000e-02 2.588189e-01 2.825926e+00
      vertex   -5.000000e-02 2.456632e-01 2.544933e+00
      vertex   -5.000000e-02 2.353345e-01 2.489520e+00
    endloop
  endfacet
  facet normal -1.000000e+00 -0.000000e+00 0.000000e+00
    outer loop
      vertex   -5.000000e-02 2.353345e-01 2.489520e+00
      vertex   -5.000000e-02 2.237812e-01 2.434350e+00
      vertex   -5.000000e-02 2.588189e-01 2.825926e+00
    endloop
  endfacet
  facet normal -1.000000e+00 0.000000e+00 0.000000e+00
    outer loop
      vertex   -5.000000e-02 2.588189e-01 2.825926e+00
      vertex   -5.000000e-02 2.237812e-01 2.434350e+00
      vertex   -5.000000e-02 2.110089e-01 2.379449e+00
    endloop
  endfacet
  facet normal -1.000000e+00 0.000000e+00 0.000000e+00
    outer loop
      vertex   -5.000000e-02 2.588189e-01 2.825926e+00
      vertex   -5.000000e-02 2.110089e-01 2.379449e+00
      vertex   -5.000000e-02 1.970238e-01 2.324844e+00
    endloop
  endfacet
  facet normal -1.000000e+00 -0.000000e+00 0.000000e+00
    outer loop
      vertex   -5.000000e-02 1.970238e-01 2.324844e+00
      vertex   -5.000000e-02 1.818328e-01 2.270563e+00
      vertex   -5.000000e-02 2.588189e-01 2.825926e+00
    endloop
  endfacet
  facet normal -1.000000e+00 0.000000e+00 0.000000e+00
    outer loop
      vertex   -5.000000e-02 2.588189e-01 2.825926e+00
      vertex   -5.000000e-02 1.818328e-01 2.270563e+00
      vertex   -5.000000e-02 1.654434e-01 2.216631e+00
    endloop
  endfacet
  facet normal -1.000000e+00 0.000000e+00 0.000000e+00
    outer loop
      vertex   -5.000000e-02 2.588189e-01 2.825926e+00
      vertex   -5.000000e-02 1.654434e-01 2.216631e+00
      vertex   -5.000000e-02 1.478636e-01 2.163075e+00
    endloop
  endfacet
  facet normal -1.000000e+00 -0.000000e+00 0.000000e+00
    outer loop
      vertex   -5.000000e-02 1.478636e-01 2.163075e+00
      vertex   -5.000000e-02 1.291020e-01 2.109922e+00
      vertex   -5.000000e-02 2.588189e-01 2.825926e+00
    endloop
  endfacet
  facet normal -1.000000e+00 0.000000e+00 0.000000e+00
    outer loop
      vertex   -5.000000e-02 2.588189e-01 2.825926e+00
      vertex   -5.000000e-02 1.291020e-01 2.109922e+00
      vertex   -5.000000e-02 1.091678e-01 2.057197e+00
    endloop
  endfacet
  facet normal -1.000000e+00 0.000000e+00 0.000000e+00
    outer loop
      vertex   -5.000000e-02 2.588189e-01 2.825926e+00
      vertex   -5.000000e-02 1.091678e-01 2.057197e+00
      vertex   -5.000000e-02 -1.502033e-07 1.860000e+00
    endloop
  endfacet
  facet normal -1.000000e+00 0.000000e+00 0.000000e+00
    outer loop
      vertex   -5.000000e-02 -1.502033e-07 1.860000e+00
      vertex   -5.000000e-02 1.091678e-01 2.057197e+00
      vertex   -5.000000e-02 8.807086e-02 2.004927e+00
    endloop
  endfacet
  facet normal -1.000000e+00 0.000000e+00 0.000000e+00
    outer loop
      vertex   -5.000000e-02 -1.502033e-07 1.860000e+00
      vertex   -5.000000e-02 8.807086e-02 2.004927e+00
      vertex   -5.000000e-02 6.582145e-02 1.953137e+00
    endloop
  endfacet
  facet normal -1.000000e+00 0.000000e+00 0.000000e+00
    outer loop
      vertex   -5.000000e-02 6.582145e-02 1.953137e+00
      vertex   -5.000000e-02 4.243051e-02 1.901852e+00
      vertex   -5.000000e-02 -1.502033e-07 1.860000e+00
    endloop
  endfacet
  facet normal -1.000000e+00 0.000000e+00 0.000000e+00
    outer loop
      vertex   -5.000000e-02 -1.502033e-07 1.860000e+00
      vertex   -5.000000e-02 4.243051e-02 1.901852e+00
      vertex   -5.000000e-02 1.790951e-02 1.851098e+00
    endloop
  endfacet
endsolid
